<?xml version="1.0" standalone="no"?>
<!DOCTYPE svg PUBLIC "-//W3C//DTD SVG 20010904//EN"
 "http://www.w3.org/TR/2001/REC-SVG-20010904/DTD/svg10.dtd">
<svg version="1.0" xmlns="http://www.w3.org/2000/svg"
 width="512.000000pt" height="512.000000pt" viewBox="0 0 512.000000 512.000000"
 preserveAspectRatio="xMidYMid meet">

<g transform="translate(0.000000,512.000000) scale(0.100000,-0.100000)"
fill="#000000" stroke="none">
<path d="M1215 5110 c-22 -5 -67 -9 -100 -10 -74 0 -265 -24 -360 -45 -441
-95 -656 -351 -720 -860 -27 -218 -30 -372 -30 -1635 0 -1263 3 -1417 30
-1635 65 -518 282 -771 743 -864 264 -53 347 -56 1782 -56 1435 0 1518 3 1782
56 226 46 377 121 497 248 159 168 226 370 264 801 13 155 17 2709 4 2845 -23
236 -31 299 -48 387 -85 418 -299 634 -714 717 -89 18 -146 25 -370 47 -95 10
-2716 13 -2760 4z m1510 -1585 c225 -37 365 -102 491 -229 94 -96 145 -201
192 -398 10 -41 14 -377 12 -1200 l0 -98 -260 0 -260 0 0 105 c0 58 -3 105 -6
105 -4 0 -25 -20 -47 -46 -72 -82 -183 -143 -317 -176 -73 -17 -356 -17 -430
0 -154 37 -278 106 -363 203 -178 203 -184 522 -15 715 55 63 167 129 282 168
119 41 194 48 521 53 176 3 324 9 328 13 13 11 -11 117 -38 171 -25 48 -85
109 -132 132 -66 33 -128 42 -278 41 -132 -1 -161 -5 -239 -28 -105 -31 -183
-66 -242 -107 -23 -16 -46 -29 -51 -29 -10 0 -193 360 -193 380 0 41 236 149
425 195 181 45 452 58 620 30z"/>
<path d="M2339 2380 c-68 -12 -122 -43 -155 -91 -25 -37 -29 -51 -29 -113 1
-102 35 -159 120 -196 130 -56 328 -34 452 51 93 64 133 145 133 270 l0 89
-237 -1 c-131 -1 -259 -5 -284 -9z"/>
</g>
</svg>
